<svg width="17" height="32" viewBox="0 0 17 32" fill="none" xmlns="http://www.w3.org/2000/svg">
<path d="M14.9834 10.2165H13.9404C13.5383 10.2165 13.1527 10.0567 12.8684 9.7721C12.5841 9.48754 12.4243 9.1016 12.4243 8.69917C12.4241 8.15811 12.3118 7.62297 12.0946 7.1275C11.8774 6.63203 11.56 6.18697 11.1624 5.82039C10.7648 5.45381 10.2956 5.17365 9.78444 4.99759C9.27327 4.82153 8.7312 4.75337 8.1924 4.79743C7.19383 4.89203 6.26769 5.36022 5.59899 6.10848C4.9303 6.85674 4.56829 7.82996 4.58529 8.83371C4.59018 9.08458 4.61599 9.3346 4.66246 9.58117C4.82107 8.73807 5.24919 7.96941 5.88229 7.39104C6.51539 6.81266 7.31917 6.45592 8.17248 6.37457C8.71128 6.33051 9.25335 6.39867 9.76453 6.57473C10.2757 6.75079 10.7449 7.03095 11.1425 7.39753C11.5401 7.76411 11.8575 8.20917 12.0747 8.70464C12.2919 9.20011 12.4042 9.73525 12.4044 10.2763C12.4028 10.4783 12.4414 10.6786 12.5181 10.8655C12.5948 11.0523 12.708 11.2219 12.851 11.3644C12.9941 11.5069 13.1641 11.6194 13.3512 11.6952C13.5383 11.7711 13.7386 11.8088 13.9404 11.8061H14.9959C15.3979 11.8061 15.7836 11.6462 16.0679 11.3617C16.3522 11.0771 16.5119 10.6912 16.5119 10.2888V10.1119C16.5117 9.7787 16.4909 9.44586 16.4497 9.11526C16.3589 9.43386 16.1664 9.71397 15.9017 9.91282C15.6369 10.1117 15.3144 10.2183 14.9834 10.2165Z" fill="#F0BF5F"/>
<path d="M1.20254 32H15.7978C15.8903 32 15.9819 31.9818 16.0674 31.9463C16.1528 31.9109 16.2305 31.859 16.2959 31.7935C16.3613 31.728 16.4132 31.6503 16.4486 31.5647C16.484 31.4792 16.5023 31.3875 16.5023 31.2949V30.3979H0.498047V31.2949C0.498047 31.4819 0.57227 31.6613 0.704388 31.7935C0.836507 31.9257 1.0157 32 1.20254 32Z" fill="#F0BF5F"/>
<path d="M16.5021 30.8963H0.497876C0.365831 30.8963 0.239194 30.8438 0.145824 30.7503C0.0524546 30.6569 0 30.5301 0 30.3979V8.50734C0 6.25105 0.895531 4.08718 2.48959 2.49174C4.08364 0.896307 6.24565 0 8.49998 0C10.7543 0 12.9163 0.896307 14.5104 2.49174C16.1044 4.08718 17 6.25105 17 8.50734V8.68424C17.0016 8.95031 16.9507 9.21408 16.8501 9.46037C16.7495 9.70667 16.6012 9.93062 16.4138 10.1193C16.2264 10.3081 16.0035 10.4578 15.7581 10.56C15.5126 10.6622 15.2494 10.7148 14.9836 10.7148H13.9405C13.4066 10.7142 12.8947 10.5016 12.5172 10.1237C12.1397 9.74588 11.9273 9.23357 11.9266 8.69919C11.9284 8.2242 11.8313 7.75406 11.6414 7.31874C11.4515 6.88342 11.1731 6.49247 10.8239 6.17084C10.4747 5.84921 10.0623 5.60396 9.61311 5.45071C9.16391 5.29747 8.68774 5.2396 8.21495 5.2808C7.34119 5.36447 6.53178 5.77712 5.95042 6.4353C5.36906 7.09349 5.05913 7.94808 5.08331 8.82626C5.1082 10.3785 5.93717 11.542 7.30383 11.9432C8.46589 12.2928 9.60215 12.7233 10.7043 13.2313C11.3092 13.5278 11.8768 13.7894 12.4245 14.041C15.0732 15.2619 16.99 16.1439 16.99 18.2766V30.3979C16.99 30.5284 16.9389 30.6537 16.8477 30.7468C16.7565 30.84 16.6324 30.8936 16.5021 30.8963ZM0.995751 29.8996H16.0042V18.2841C16.0042 16.8465 14.7097 16.1862 12.0212 14.9455C11.4686 14.6963 10.896 14.4272 10.2786 14.1257C9.22265 13.6422 8.13472 13.2318 7.02253 12.8974C5.24512 12.3767 4.11992 10.822 4.08756 8.84121C4.05997 7.71038 4.46225 6.61123 5.21313 5.76582C5.96401 4.92041 7.0075 4.39176 8.1328 4.28668C8.74162 4.23366 9.35478 4.30892 9.93276 4.50761C10.5107 4.70631 11.0407 5.02402 11.4885 5.44026C11.9351 5.85336 12.2919 6.3542 12.5365 6.91149C12.781 7.46879 12.9082 8.07057 12.9099 8.67926C12.9076 8.81571 12.9326 8.95125 12.9835 9.07786C13.0343 9.20448 13.11 9.31962 13.2061 9.41646C13.3022 9.51331 13.4167 9.58991 13.5428 9.64174C13.6689 9.69357 13.8042 9.71958 13.9405 9.71823H14.996C15.2658 9.71757 15.5244 9.60999 15.7152 9.41903C15.906 9.22807 16.0135 8.96925 16.0142 8.69919V8.52229C16.0151 7.53531 15.8219 6.55781 15.4454 5.64558C15.069 4.73336 14.5167 3.90428 13.8201 3.20569C12.4132 1.79482 10.504 1.00109 8.51243 0.999105C7.5263 0.998123 6.54964 1.19155 5.63821 1.56834C4.72678 1.94514 3.89842 2.49792 3.20043 3.19512C1.79078 4.60319 0.997732 6.51405 0.995751 8.50734V29.8996Z" fill="#333333"/>
<path d="M8.49859 26.4464C7.52068 26.4464 6.56472 26.1562 5.75165 25.6123C4.93857 25.0685 4.3049 24.2956 3.93078 23.3912C3.55666 22.4869 3.4589 21.4919 3.64987 20.532C3.84083 19.5721 4.31194 18.6904 5.00361 17.9985C5.69527 17.3065 6.57642 16.8355 7.53561 16.6448C8.4948 16.4542 9.48893 16.5525 10.3923 16.9274C11.2956 17.3023 12.0676 17.9369 12.6105 18.751C13.1535 19.565 13.443 20.522 13.4425 21.5007C13.4405 22.8122 12.9189 24.0694 11.9921 24.9966C11.0653 25.9237 9.80896 26.4451 8.49859 26.4464ZM8.49859 17.5492C7.71772 17.5492 6.95439 17.7809 6.30512 18.2151C5.65585 18.6493 5.1498 19.2665 4.85098 19.9885C4.55215 20.7106 4.47396 21.5051 4.6263 22.2716C4.77864 23.0382 5.15467 23.7423 5.70683 24.2949C6.25899 24.8475 6.96248 25.2239 7.72835 25.3764C8.49421 25.5288 9.28806 25.4506 10.0095 25.1515C10.7309 24.8524 11.3475 24.3459 11.7814 23.6961C12.2152 23.0463 12.4467 22.2823 12.4467 21.5007C12.4461 20.4529 12.0299 19.4482 11.2896 18.7073C10.5494 17.9664 9.54551 17.5498 8.49859 17.5492Z" fill="#333333"/>
<path d="M10.8112 21.9991H8.49861C8.36656 21.9991 8.23993 21.9466 8.14656 21.8531C8.05319 21.7597 8.00073 21.6329 8.00073 21.5007C8.00073 21.3686 8.05319 21.2418 8.14656 21.1484C8.23993 21.0549 8.36656 21.0024 8.49861 21.0024H10.8112C10.9433 21.0024 11.0699 21.0549 11.1633 21.1484C11.2567 21.2418 11.3091 21.3686 11.3091 21.5007C11.3091 21.6329 11.2567 21.7597 11.1633 21.8531C11.0699 21.9466 10.9433 21.9991 10.8112 21.9991Z" fill="#F0BF5F"/>
<path d="M8.49869 21.9991H6.18855C6.0565 21.9991 5.92987 21.9466 5.8365 21.8531C5.74313 21.7597 5.69067 21.6329 5.69067 21.5007C5.69067 21.3686 5.74313 21.2418 5.8365 21.1484C5.92987 21.0549 6.0565 21.0024 6.18855 21.0024H8.50118C8.63323 21.0024 8.75986 21.0549 8.85323 21.1484C8.9466 21.2418 8.99906 21.3686 8.99906 21.5007C8.99906 21.6329 8.9466 21.7597 8.85323 21.8531C8.75986 21.9466 8.63323 21.9991 8.50118 21.9991H8.49869Z" fill="#F0BF5F"/>
</svg>
