<svg width="32" height="29" viewBox="0 0 32 29" fill="none" xmlns="http://www.w3.org/2000/svg">
<g clip-path="url(#clip0_12_375)">
<path d="M30.5026 13.5083H1.50684V15.2334H30.5026V13.5083Z" fill="#F0BF5F"/>
<path d="M29.1851 29C28.2269 29.0051 27.3028 28.6404 26.6003 27.98C26.0815 27.5613 25.6683 27.2308 24.7859 27.2308C23.9036 27.2308 23.4904 27.5456 22.9716 27.98C22.266 28.6364 21.343 29.0006 20.3851 29.0006C19.4273 29.0006 18.5043 28.6364 17.7987 27.98C17.2799 27.5613 16.8667 27.2308 15.9844 27.2308C15.102 27.2308 14.6888 27.5456 14.17 27.98C13.4642 28.6373 12.5406 29.0021 11.582 29.0021C10.6235 29.0021 9.69985 28.6373 8.99408 27.98C8.47524 27.5613 8.06204 27.2308 7.17971 27.2308C7.01491 27.2308 6.85687 27.1645 6.74034 27.0464C6.62381 26.9283 6.55835 26.7682 6.55835 26.6012C6.55835 26.4342 6.62381 26.2741 6.74034 26.156C6.85687 26.0379 7.01491 25.9716 7.17971 25.9716C8.13893 25.966 9.06425 26.3307 9.76767 26.9915C10.2865 27.4102 10.6997 27.7408 11.582 27.7408C12.4644 27.7408 12.8776 27.426 13.3964 26.9915C14.102 26.3352 15.025 25.971 15.9828 25.971C16.9407 25.971 17.8636 26.3352 18.5692 26.9915C19.0881 27.4102 19.5013 27.7408 20.3836 27.7408C21.2659 27.7408 21.6791 27.426 22.198 26.9915C22.9032 26.3345 23.8263 25.9698 24.7844 25.9698C25.7424 25.9698 26.6655 26.3345 27.3708 26.9915C27.8896 27.4102 28.3028 27.7408 29.1851 27.7408C29.3499 27.7408 29.508 27.8071 29.6245 27.9252C29.741 28.0433 29.8065 28.2034 29.8065 28.3704C29.8065 28.5374 29.741 28.6975 29.6245 28.8156C29.508 28.9337 29.3499 29 29.1851 29Z" fill="#F0BF5F"/>
<path d="M31.3786 14.138H0.621359C0.456565 14.138 0.298519 14.0717 0.181992 13.9536C0.0654645 13.8355 0 13.6754 0 13.5084C0 13.3414 0.0654645 13.1813 0.181992 13.0632C0.298519 12.9451 0.456565 12.8788 0.621359 12.8788H31.3786C31.5434 12.8788 31.7015 12.9451 31.818 13.0632C31.9345 13.1813 32 13.3414 32 13.5084C32 13.6754 31.9345 13.8355 31.818 13.9536C31.7015 14.0717 31.5434 14.138 31.3786 14.138Z" fill="#333333"/>
<path d="M21.8003 24.0451C21.6355 24.0451 21.4775 23.9787 21.3609 23.8607C21.2444 23.7426 21.179 23.5825 21.179 23.4155V3.23006C21.179 2.37009 21.5161 1.54535 22.1162 0.937258C22.7163 0.329169 23.5303 -0.0124512 24.379 -0.0124512C25.2276 -0.0124512 26.0416 0.329169 26.6417 0.937258C27.2418 1.54535 27.579 2.37009 27.579 3.23006V13.392C27.579 13.559 27.5135 13.7191 27.397 13.8372C27.2804 13.9553 27.1224 14.0216 26.9576 14.0216C26.7928 14.0216 26.6348 13.9553 26.5182 13.8372C26.4017 13.7191 26.3362 13.559 26.3362 13.392V3.23006C26.3362 2.70406 26.13 2.1996 25.763 1.82767C25.3959 1.45573 24.8981 1.24678 24.379 1.24678C23.8599 1.24678 23.362 1.45573 22.9949 1.82767C22.6279 2.1996 22.4217 2.70406 22.4217 3.23006V23.4155C22.4217 23.4981 22.4056 23.58 22.3744 23.6564C22.3432 23.7328 22.2974 23.8022 22.2397 23.8607C22.182 23.9191 22.1135 23.9655 22.0381 23.9972C21.9627 24.0288 21.8819 24.0451 21.8003 24.0451Z" fill="#333333"/>
<path d="M12.4676 24.0451C12.3028 24.0451 12.1447 23.9787 12.0282 23.8607C11.9117 23.7426 11.8462 23.5825 11.8462 23.4155V3.23006C11.8462 2.37009 12.1833 1.54535 12.7834 0.937258C13.3836 0.329169 14.1975 -0.0124512 15.0462 -0.0124512C15.8949 -0.0124512 16.7088 0.329169 17.3089 0.937258C17.909 1.54535 18.2462 2.37009 18.2462 3.23006V13.392C18.2462 13.559 18.1807 13.7191 18.0642 13.8372C17.9477 13.9553 17.7896 14.0216 17.6248 14.0216C17.46 14.0216 17.302 13.9553 17.1855 13.8372C17.0689 13.7191 17.0035 13.559 17.0035 13.392V3.23006C17.0035 2.70406 16.7973 2.1996 16.4302 1.82767C16.0631 1.45573 15.5653 1.24678 15.0462 1.24678C14.5271 1.24678 14.0292 1.45573 13.6622 1.82767C13.2951 2.1996 13.0889 2.70406 13.0889 3.23006V23.4155C13.0889 23.5825 13.0234 23.7426 12.9069 23.8607C12.7904 23.9787 12.6323 24.0451 12.4676 24.0451Z" fill="#333333"/>
<path d="M21.8004 17.3553H12.48C12.3152 17.3553 12.1572 17.289 12.0406 17.1709C11.9241 17.0528 11.8586 16.8927 11.8586 16.7257C11.8586 16.5587 11.9241 16.3986 12.0406 16.2805C12.1572 16.1624 12.3152 16.0961 12.48 16.0961H21.8004C21.9652 16.0961 22.1232 16.1624 22.2398 16.2805C22.3563 16.3986 22.4217 16.5587 22.4217 16.7257C22.4217 16.8927 22.3563 17.0528 22.2398 17.1709C22.1232 17.289 21.9652 17.3553 21.8004 17.3553Z" fill="#333333"/>
<path d="M21.8004 20.5758H12.48C12.3152 20.5758 12.1572 20.5094 12.0406 20.3913C11.9241 20.2733 11.8586 20.1131 11.8586 19.9461C11.8586 19.7792 11.9241 19.619 12.0406 19.5009C12.1572 19.3829 12.3152 19.3165 12.48 19.3165H21.8004C21.9652 19.3165 22.1232 19.3829 22.2398 19.5009C22.3563 19.619 22.4217 19.7792 22.4217 19.9461C22.4217 20.1131 22.3563 20.2733 22.2398 20.3913C22.1232 20.5094 21.9652 20.5758 21.8004 20.5758Z" fill="#333333"/>
</g>
<defs>
<clipPath id="clip0_12_375">
<rect width="32" height="29" fill="white"/>
</clipPath>
</defs>
</svg>
