<svg width="32" height="32" viewBox="0 0 32 32" fill="none" xmlns="http://www.w3.org/2000/svg">
<path d="M13.4999 16.9314H12.8333V15.0478C12.8333 14.7011 12.5348 14.4199 12.1666 14.4199H9.99992C9.63172 14.4199 9.33325 14.7011 9.33325 15.0478C9.33325 15.3946 9.63172 15.6756 9.99992 15.6756H11.4999V16.9314H10.8333C10.4651 16.9314 10.1666 17.2125 10.1666 17.5592V22.5821C10.1666 22.9288 10.4651 23.21 10.8333 23.21C11.2015 23.21 11.4999 22.9288 11.4999 22.5821V18.1871H12.8333V22.5821C12.8333 22.9288 13.1317 23.21 13.4999 23.21C13.8681 23.21 14.1666 22.9288 14.1666 22.5821V17.5592C14.1666 17.2125 13.8681 16.9314 13.4999 16.9314Z" fill="#F0BF5F"/>
<path d="M19.8333 22.5821V17.5592C19.8333 17.2125 19.5347 16.9314 19.1666 16.9314H18.4999V15.6756H19.9999C20.3681 15.6756 20.6666 15.3946 20.6666 15.0478C20.6666 14.7011 20.3681 14.4199 19.9999 14.4199H17.8333C17.4651 14.4199 17.1666 14.7011 17.1666 15.0478V16.9314H16.4999C16.1318 16.9314 15.8333 17.2125 15.8333 17.5592V22.5821C15.8333 22.9288 16.1318 23.21 16.4999 23.21C16.8681 23.21 17.1666 22.9288 17.1666 22.5821V18.1871H18.4999V22.5821C18.4999 22.9288 18.7985 23.21 19.1666 23.21C19.5347 23.21 19.8333 22.9288 19.8333 22.5821Z" fill="#F0BF5F"/>
<path d="M18.6953 5.68617C18.7281 6.02792 19.0483 6.28634 19.4191 6.25514C19.7859 6.22393 20.0563 5.91873 20.0233 5.57341C19.8117 3.36597 17.9983 1.58849 15.6666 1.29754V0.627862C15.6666 0.281094 15.3681 0 14.9999 0C14.6317 0 14.3333 0.281094 14.3333 0.627862V1.29754C12.0005 1.58855 10.1881 3.36685 9.97661 5.57341C9.94355 5.91873 10.214 6.22393 10.5807 6.25514C10.9468 6.28647 11.2715 6.03162 11.3045 5.68617C11.478 3.87617 13.0666 2.5112 14.9999 2.5112C16.9331 2.5112 18.5218 3.87617 18.6953 5.68617Z" fill="#F0BF5F"/>
<path d="M20.2778 26.3491H9.72184C9.35371 26.3491 9.05518 26.6302 9.05518 26.977C9.05518 27.3237 9.35371 27.6048 9.72184 27.6048H20.2778C20.646 27.6048 20.9445 27.3237 20.9445 26.977C20.9445 26.6303 20.646 26.3491 20.2778 26.3491Z" fill="#283954"/>
<path d="M31.3333 3.11841H30.6667C29.1963 3.11841 28 4.24504 28 5.62986V7.51344H21.3333V5.62986C21.3333 5.28315 21.0348 5.00199 20.6667 5.00199H9.33333C8.96513 5.00199 8.66667 5.28315 8.66667 5.62986V7.51344H1.33333C0.9652 7.51344 0.666667 7.7946 0.666667 8.1413V12.5363C0.666667 12.8831 0.9652 13.1642 1.33333 13.1642H2.66667V21.9541H0.666667C0.298533 21.9541 0 22.2352 0 22.5819V26.977C0 27.3237 0.298533 27.6048 0.666667 27.6048H3.61133C3.97947 27.6048 4.278 27.3237 4.278 26.977C4.278 26.6302 3.97947 26.3491 3.61133 26.3491H1.33333V23.2098C3.17607 23.2099 27.4457 23.2098 28.6667 23.2098V26.3491H26.3887C26.0205 26.3491 25.722 26.6302 25.722 26.977C25.722 27.3237 26.0205 27.6048 26.3887 27.6048H29.3333C29.7015 27.6048 30 27.3237 30 26.977V22.5819C30 22.2352 29.7015 21.9541 29.3333 21.9541H27.3333V13.1642H28.6667C29.0348 13.1642 29.3333 12.8831 29.3333 12.5363C29.3333 11.1655 29.3333 7.12718 29.3333 5.62986C29.3333 4.93745 29.9315 4.37413 30.6667 4.37413H31.3333C31.7015 4.37413 32 4.09298 32 3.74627C32 3.39956 31.7015 3.11841 31.3333 3.11841ZM2 11.9085V8.76917C4.56167 8.76917 25.475 8.76917 28 8.76917V11.9085C23.0923 11.9085 26.7419 11.9085 2 11.9085ZM22 13.1642V21.9541H8V13.1642H22ZM10 6.25772H20V7.51344H10V6.25772ZM4 13.1642H6.66667V21.9541H4V13.1642ZM26 21.9541H23.3333V13.1642H26V21.9541Z" fill="#333333"/>
<path d="M6.66675 24.4657C4.46115 24.4657 2.66675 26.1557 2.66675 28.2329C2.66675 30.3101 4.46115 32 6.66675 32C8.87235 32 10.6667 30.3101 10.6667 28.2329C10.6667 26.1557 8.87235 24.4657 6.66675 24.4657ZM6.66675 30.7443C5.19635 30.7443 4.00008 29.6177 4.00008 28.2329C4.00008 26.8481 5.19635 25.7214 6.66675 25.7214C8.13715 25.7214 9.33342 26.8481 9.33342 28.2329C9.33342 29.6177 8.13715 30.7443 6.66675 30.7443Z" fill="#F0BF5F"/>
<path d="M23.3333 24.4657C21.1277 24.4657 19.3333 26.1557 19.3333 28.2329C19.3333 30.3101 21.1277 32 23.3333 32C25.5389 32 27.3333 30.3101 27.3333 28.2329C27.3333 26.1557 25.5389 24.4657 23.3333 24.4657ZM23.3333 30.7443C21.8629 30.7443 20.6666 29.6177 20.6666 28.2329C20.6666 26.8481 21.8629 25.7214 23.3333 25.7214C24.8037 25.7214 25.9999 26.8481 25.9999 28.2329C25.9999 29.6177 24.8037 30.7443 23.3333 30.7443Z" fill="#F0BF5F"/>
<path d="M6.66667 28.8606C7.03486 28.8606 7.33333 28.5795 7.33333 28.2327C7.33333 27.886 7.03486 27.6049 6.66667 27.6049C6.29848 27.6049 6 27.886 6 28.2327C6 28.5795 6.29848 28.8606 6.66667 28.8606Z" fill="#F0BF5F"/>
<path d="M23.3334 28.8606C23.7016 28.8606 24.0001 28.5795 24.0001 28.2327C24.0001 27.886 23.7016 27.6049 23.3334 27.6049C22.9652 27.6049 22.6667 27.886 22.6667 28.2327C22.6667 28.5795 22.9652 28.8606 23.3334 28.8606Z" fill="#F0BF5F"/>
</svg>
