<svg width="32" height="29" viewBox="0 0 32 29" fill="none" xmlns="http://www.w3.org/2000/svg">
<path d="M28.2335 25.3127H11.318C10.9715 25.3127 10.6907 25.5888 10.6907 25.9292C10.6907 26.2696 10.9715 26.5456 11.318 26.5456H28.2335C28.5799 26.5456 28.8608 26.2696 28.8608 25.9292C28.8608 25.5888 28.5799 25.3127 28.2335 25.3127Z" fill="#F0BF5F"/>
<path d="M28.2335 22.23H11.318C10.9715 22.23 10.6907 22.506 10.6907 22.8464C10.6907 23.1868 10.9715 23.4628 11.318 23.4628H28.2335C28.5799 23.4628 28.8608 23.1868 28.8608 22.8464C28.8608 22.506 28.5799 22.23 28.2335 22.23Z" fill="#F0BF5F"/>
<path d="M10.6907 19.7635C10.6907 20.1039 10.9715 20.3799 11.318 20.3799H28.2335C28.5799 20.3799 28.8608 20.1039 28.8608 19.7635C28.8608 19.4231 28.5799 19.1471 28.2335 19.1471H11.318C10.9716 19.1471 10.6907 19.4231 10.6907 19.7635Z" fill="#F0BF5F"/>
<path d="M11.9454 21.6134C11.9454 21.273 11.6645 20.9969 11.3181 20.9969H5.01895C4.67253 20.9969 4.3916 21.273 4.3916 21.6134C4.3916 21.9538 4.67253 22.2298 5.01895 22.2298H11.3181C11.6645 22.2298 11.9454 21.9538 11.9454 21.6134Z" fill="#F0BF5F"/>
<path d="M5.01895 19.1467H11.3181C11.6645 19.1467 11.9454 18.8706 11.9454 18.5302C11.9454 18.1899 11.6645 17.9138 11.3181 17.9138H5.01895C4.67253 17.9138 4.3916 18.1899 4.3916 18.5302C4.3916 18.8707 4.67253 19.1467 5.01895 19.1467Z" fill="#F0BF5F"/>
<path d="M5.01895 16.0638H11.3181C11.6645 16.0638 11.9454 15.7877 11.9454 15.4474C11.9454 15.107 11.6645 14.8309 11.3181 14.8309H5.01895C4.67253 14.8309 4.3916 15.107 4.3916 15.4474C4.3916 15.7878 4.67253 16.0638 5.01895 16.0638Z" fill="#F0BF5F"/>
<path d="M30.1128 2.4764H28.8604V2.47375C28.8604 1.10974 27.7313 6.17426e-05 26.3435 6.17426e-05C25.5103 6.17426e-05 9.02644 0 8.16835 0C6.51227 0 5.12006 1.04327 4.60669 2.47622H1.2547V1.25352C1.2547 0.913044 0.973773 0.636936 0.62735 0.636936C0.280927 0.636936 0 0.913044 0 1.25352C0 3.15977 0 5.49818 0 7.41941C0 7.75995 0.280865 8.03599 0.62735 8.03599C0.973773 8.03599 1.2547 7.75995 1.2547 7.41941V6.18623H4.39145V22.1922C4.39145 23.5563 5.52062 24.6661 6.90857 24.6661H10.6907V26.5263C10.6907 27.8903 11.8198 29 13.2077 29H26.3435C27.7313 29 28.8604 27.8903 28.8604 26.5263V6.18598H30.1128C31.1534 6.18598 32 5.3539 32 4.33116C32 3.30843 31.1534 2.4764 30.1128 2.4764ZM8.16741 1.23318C8.16766 1.23318 8.16791 1.23318 8.16816 1.23318H8.17111C9.08805 1.23416 9.91263 1.72651 10.3535 2.47616H5.98329C6.43203 1.71214 7.25141 1.23355 8.16741 1.23318ZM1.2547 3.7094C1.40188 3.7094 10.6571 3.7094 10.6905 3.7094C10.6905 3.71889 10.6905 4.94399 10.6905 4.95305C10.5905 4.95305 1.35696 4.95305 1.2547 4.95305V3.7094ZM6.90857 23.4329C6.21246 23.4329 5.64615 22.8764 5.64615 22.1922V6.18623H10.6905V23.4329H6.90857ZM27.6057 26.5263C27.6057 27.2104 27.0395 27.7668 26.3435 27.7668H13.2077C12.5116 27.7668 11.9454 27.2104 11.9454 26.5263C11.9454 25.6975 11.9452 4.50245 11.9452 3.71211C11.9452 2.80609 11.6104 1.92505 10.9757 1.23324H26.3435C27.0395 1.23324 27.6057 1.78971 27.6057 2.47375V26.5263ZM30.1128 4.95281H28.8604V3.70958H30.1128C30.4616 3.70958 30.7453 3.9884 30.7453 4.33116C30.7453 4.67399 30.4616 4.95281 30.1128 4.95281Z" fill="#333333"/>
</svg>
