<svg width="54" height="54" viewBox="0 0 54 54" fill="none" xmlns="http://www.w3.org/2000/svg">
<g clip-path="url(#clip0_68_570)">
<path d="M28.5882 15.8824C28.5882 14.1309 27.1633 12.7059 25.4118 12.7059C23.6603 12.7059 22.2353 14.1309 22.2353 15.8824C22.2353 17.6339 23.6603 19.0589 25.4118 19.0589C27.1633 19.0589 28.5882 17.6339 28.5882 15.8824ZM24.3529 15.8824C24.3529 15.2986 24.8279 14.8236 25.4118 14.8236C25.9956 14.8236 26.4706 15.2986 26.4706 15.8824C26.4706 16.4662 25.9956 16.9412 25.4118 16.9412C24.8279 16.9412 24.3529 16.4662 24.3529 15.8824Z" fill="#F0BF5F"/>
<path d="M15.8823 18C14.1308 18 12.7059 19.425 12.7059 21.1765C12.7059 22.928 14.1308 24.3529 15.8823 24.3529C17.6338 24.3529 19.0588 22.928 19.0588 21.1765C19.0588 19.425 17.6338 18 15.8823 18ZM15.8823 22.2353C15.2985 22.2353 14.8235 21.7603 14.8235 21.1765C14.8235 20.5926 15.2985 20.1176 15.8823 20.1176C16.4662 20.1176 16.9412 20.5926 16.9412 21.1765C16.9412 21.7603 16.4662 22.2353 15.8823 22.2353Z" fill="#F0BF5F"/>
<path d="M39.6706 19.2705C38.8359 19.2705 38.0238 19.445 37.2761 19.781C36.4023 18.7173 35.0795 18.0706 33.6706 18.0706C31.4305 18.0706 29.5546 19.6597 29.1112 21.7699C27.0009 22.2134 25.4117 24.0893 25.4117 26.3294C25.4117 26.865 25.502 27.3887 25.68 27.8862C25.8769 28.436 26.4824 28.7236 27.0338 28.5262C27.5842 28.3292 27.8709 27.7231 27.6738 27.1725C27.578 26.9047 27.5294 26.6211 27.5294 26.3294C27.5294 24.9282 28.6694 23.7882 30.0706 23.7882C30.6552 23.7882 31.1294 23.3141 31.1294 22.7294C31.1294 21.3282 32.2694 20.1882 33.6706 20.1882C34.6488 20.1882 35.5509 20.7598 35.9687 21.6444C36.2496 22.2387 36.9969 22.4344 37.5327 22.06C38.1615 21.6206 38.9006 21.3882 39.6705 21.3882C41.7334 21.3882 43.4117 23.0665 43.4117 25.1293C43.4117 25.7862 43.2387 26.4331 42.9114 27C42.6191 27.5065 42.7928 28.1539 43.2992 28.4464C43.8054 28.7384 44.4531 28.5651 44.7455 28.0586C45.2583 27.1703 45.5293 26.1574 45.5293 25.1293C45.5294 21.8987 42.9012 19.2705 39.6706 19.2705Z" fill="#F0BF5F"/>
<path d="M41.2941 11.6471C41.8788 11.6471 42.3529 11.1729 42.3529 10.5882V9.5294C42.3529 8.94472 41.8788 8.47058 41.2941 8.47058C40.7094 8.47058 40.2353 8.94472 40.2353 9.5294V10.5882C40.2353 11.1729 40.7094 11.6471 41.2941 11.6471Z" fill="#F0BF5F"/>
<path d="M45.5294 8.47058C44.9447 8.47058 44.4706 8.94472 44.4706 9.5294V10.5882C44.4706 11.1729 44.9447 11.6471 45.5294 11.6471C46.1141 11.6471 46.5882 11.1729 46.5882 10.5882V9.5294C46.5882 8.94472 46.1141 8.47058 45.5294 8.47058Z" fill="#F0BF5F"/>
<path d="M41.2941 16.9411C41.8788 16.9411 42.3529 16.4671 42.3529 15.8823V14.8235C42.3529 14.2387 41.8788 13.7646 41.2941 13.7646C40.7094 13.7646 40.2353 14.2387 40.2353 14.8235V15.8823C40.2353 16.4671 40.7094 16.9411 41.2941 16.9411Z" fill="#F0BF5F"/>
<path d="M45.5294 13.7646C44.9447 13.7646 44.4706 14.2387 44.4706 14.8235V15.8823C44.4706 16.4671 44.9447 16.9411 45.5294 16.9411C46.1141 16.9411 46.5882 16.4671 46.5882 15.8823V14.8235C46.5882 14.2387 46.1141 13.7646 45.5294 13.7646Z" fill="#F0BF5F"/>
<path d="M54 29.6471C54 28.2668 53.1147 27.0898 51.8824 26.6527V1.05882C51.8824 0.474035 51.4082 0 50.8235 0H43.4118C42.8271 0 42.3529 0.474035 42.3529 1.05882V4.23529H41.2941C40.7094 4.23529 40.2353 4.70944 40.2353 5.29412C40.2353 5.8788 40.7094 6.35294 41.2941 6.35294H45.5294C46.1141 6.35294 46.5882 5.8788 46.5882 5.29412C46.5882 4.70944 46.1141 4.23529 45.5294 4.23529H44.4706V2.11765H49.7647V26.4706C48.5977 26.4706 5.20931 26.4706 3.17647 26.4706C1.42147 26.4706 0 27.8921 0 29.6471C0 31.0679 0.937694 32.2736 2.22671 32.6784L3.82458 45.0654C4.104 47.5388 6.05107 49.4484 8.47059 49.728V52.9412C8.47059 53.5259 8.94473 54 9.52941 54H13.7647C14.3495 54 14.8235 53.5259 14.8235 52.9412V49.7647H39.1765V52.9412C39.1765 53.5259 39.6506 54 40.2353 54H44.4706C45.0553 54 45.5294 53.5259 45.5294 52.9412V49.7281C47.9489 49.4485 49.896 47.539 50.1754 45.0655L51.7732 32.6793C53.048 32.2813 54 31.0867 54 29.6471ZM11.6471 38.2235H20.1176V40.2353H11.6471V38.2235ZM20.1176 28.5882V36.1059H11.6471V28.5882H20.1176ZM3.17647 28.5882H9.52941V30.7059H3.17647C2.59264 30.7059 2.11765 30.2309 2.11765 29.6471C2.11765 29.0626 2.59189 28.5882 3.17647 28.5882ZM12.7059 51.8824H10.5882V49.7647H12.7059V51.8824ZM43.4118 51.8824H41.2941V49.7647H43.4118V51.8824ZM48.0719 44.8216C47.8928 46.4324 46.5358 47.6471 44.9153 47.6471C41.1974 47.6471 14.5392 47.6471 9.08471 47.6471C7.46418 47.6471 6.10719 46.4324 5.92825 44.8216C5.92687 44.8092 5.36188 40.4305 4.38067 32.8235H9.52941V41.2941C9.52941 41.8788 10.0036 42.3529 10.5882 42.3529H21.1765C21.7613 42.3529 22.2353 41.8788 22.2353 41.2941V32.8235H49.6193C48.0217 45.2088 48.0732 44.8081 48.0719 44.8216ZM50.8235 30.7059H22.2353V28.5882H50.8235C51.4074 28.5882 51.8824 29.0632 51.8824 29.6471C51.8824 30.2315 51.4081 30.7059 50.8235 30.7059Z" fill="#333333"/>
</g>
<defs>
<clipPath id="clip0_68_570">
<rect width="54" height="54" fill="white"/>
</clipPath>
</defs>
</svg>
