<svg width="28" height="32" viewBox="0 0 28 32" fill="none" xmlns="http://www.w3.org/2000/svg">
<g clip-path="url(#clip0_12_329)">
<path d="M22.3196 29.0806C19.9203 30.951 16.9822 31.9762 13.9533 31.9999C8.95995 31.9999 6.05884 29.0806 6.05884 29.0806C6.05884 29.0806 12.2085 27.1816 22.3196 29.0806Z" fill="#F0BF5F"/>
<path d="M27.4813 31.6642C27.3746 31.6645 27.2705 31.6315 27.1831 31.5698C24.7383 29.836 19.5453 28.7186 13.9609 28.7186C8.45162 28.7186 3.28977 29.815 0.813848 31.5121C0.757624 31.554 0.6936 31.584 0.62562 31.6003C0.557639 31.6166 0.487105 31.6189 0.418252 31.6069C0.349398 31.5949 0.283646 31.569 0.224943 31.5307C0.166239 31.4924 0.115795 31.4424 0.0766402 31.3839C0.0374849 31.3254 0.0104257 31.2594 -0.00291282 31.19C-0.0162513 31.1207 -0.0155941 31.0493 -0.000980408 30.9801C0.0136332 30.911 0.0419018 30.8456 0.0821281 30.7878C0.122354 30.73 0.173709 30.6811 0.233107 30.6439C2.91126 28.8078 8.16903 27.6694 13.9738 27.6694C19.8513 27.6694 25.1479 28.834 27.7975 30.7121C27.8881 30.776 27.9561 30.8676 27.9917 30.9734C28.0272 31.0792 28.0285 31.1937 27.9952 31.3003C27.9619 31.4068 27.8959 31.4998 27.8067 31.5658C27.7175 31.6317 27.6099 31.6671 27.4994 31.6668L27.4813 31.6642Z" fill="#333333"/>
<path d="M12.7763 30.1639H12.7504C12.6133 30.1571 12.4844 30.0955 12.3921 29.9928C12.2997 29.89 12.2514 29.7544 12.2578 29.6157C12.2578 29.516 12.6726 19.6485 8.82777 14.5626C8.7864 14.5078 8.7561 14.4453 8.7386 14.3787C8.7211 14.3121 8.71674 14.2426 8.72577 14.1743C8.73479 14.106 8.75703 14.0401 8.79122 13.9805C8.8254 13.9209 8.87086 13.8687 8.92499 13.8268C8.97912 13.785 9.04088 13.7543 9.10672 13.7366C9.17256 13.7189 9.24121 13.7145 9.30874 13.7236C9.37627 13.7328 9.44135 13.7553 9.50029 13.7898C9.55922 13.8244 9.61085 13.8704 9.65221 13.9252C11.3711 16.1967 12.5041 19.5383 13.0226 23.8635C13.2549 25.788 13.3415 27.7277 13.2818 29.6655C13.2753 29.7978 13.2196 29.9227 13.1258 30.0152C13.032 30.1076 12.9072 30.1607 12.7763 30.1639Z" fill="#333333"/>
<path d="M15.6048 30.1639C15.4695 30.164 15.3396 30.1105 15.2427 30.0149C15.1458 29.9194 15.0897 29.7893 15.0863 29.6524C15.0656 28.8865 14.6585 10.8642 18.9882 5.95408C19.0334 5.90241 19.0883 5.86027 19.1497 5.83007C19.2111 5.79986 19.2778 5.78219 19.3459 5.77805C19.414 5.77391 19.4823 5.78338 19.5468 5.80593C19.6113 5.82849 19.6708 5.86367 19.7219 5.90949C19.7729 5.9553 19.8146 6.01084 19.8444 6.07293C19.8743 6.13503 19.8918 6.20247 19.8959 6.2714C19.8999 6.34033 19.8906 6.40939 19.8683 6.47466C19.846 6.53993 19.8112 6.60011 19.7659 6.65178C15.7059 11.2551 16.1208 29.4426 16.1363 29.6262C16.138 29.6962 16.1259 29.7658 16.1006 29.831C16.0753 29.8962 16.0374 29.9555 15.9891 30.0057C15.9408 30.0558 15.883 30.0956 15.8193 30.1228C15.7555 30.1499 15.687 30.1639 15.6178 30.1639H15.6048Z" fill="#333333"/>
<path d="M5.70366 20.5376C5.67176 20.5406 5.63964 20.5406 5.60774 20.5376C5.53911 20.526 5.47349 20.5005 5.41479 20.4627C5.3561 20.4249 5.30553 20.3755 5.26609 20.3175C5.22666 20.2595 5.19917 20.1941 5.18527 20.1251C5.17136 20.0561 5.17132 19.985 5.18515 19.916C5.22144 19.7271 6.08478 15.2839 9.63144 14.4734C9.76372 14.4475 9.90073 14.4748 10.0135 14.5494C10.1262 14.624 10.2059 14.74 10.2355 14.873C10.2652 15.0059 10.2425 15.1454 10.1724 15.2617C10.1022 15.378 9.99001 15.4622 9.85959 15.4963C6.99996 16.1547 6.22218 20.0708 6.22218 20.1101C6.19955 20.2318 6.13508 20.3415 6.04018 20.4198C5.94528 20.498 5.82607 20.5398 5.70366 20.5376Z" fill="#F0BF5F"/>
<path d="M2.40589 16.2047C2.30344 16.2048 2.20325 16.1741 2.11799 16.1167C2.03272 16.0592 1.96619 15.9775 1.92681 15.8818C1.88742 15.7861 1.87694 15.6807 1.89668 15.579C1.91643 15.4773 1.96551 15.3838 2.03774 15.3103C2.07404 15.2735 5.68552 11.6722 9.997 14.5234C10.1122 14.5995 10.1927 14.7189 10.2209 14.8551C10.2491 14.9914 10.2227 15.1334 10.1474 15.2499C10.0721 15.3665 9.95412 15.4479 9.81944 15.4765C9.68476 15.505 9.5444 15.4782 9.42923 15.4021C5.8333 13.0283 2.89589 15.9267 2.77404 16.0552C2.67576 16.1524 2.54335 16.2062 2.40589 16.2047Z" fill="#F0BF5F"/>
<path d="M9.78197 15.4178C9.65692 15.4192 9.53558 15.3749 9.44029 15.2929C9.34501 15.211 9.2822 15.097 9.26345 14.9719C8.84864 12.1312 10.3705 8.85779 10.4223 8.7214C10.4825 8.59548 10.5896 8.49891 10.7202 8.45291C10.8507 8.40692 10.994 8.41528 11.1185 8.47615C11.2429 8.53702 11.3384 8.64541 11.3838 8.77749C11.4293 8.90956 11.421 9.0545 11.3609 9.18041C11.3453 9.21189 9.92197 12.307 10.2953 14.825C10.313 14.9623 10.2763 15.1011 10.1933 15.2112C10.1102 15.3212 9.98755 15.3936 9.85197 15.4125L9.78197 15.4178Z" fill="#F0BF5F"/>
<path d="M9.71194 15.4754C9.61248 15.4754 9.51511 15.4465 9.43145 15.3921C9.34779 15.3377 9.28136 15.2601 9.24008 15.1685C7.94379 12.2833 5.10749 11.3705 5.09194 11.3626C5.02691 11.3421 4.96651 11.3089 4.91418 11.2648C4.86185 11.2207 4.81863 11.1665 4.78697 11.1055C4.75531 11.0445 4.73584 10.9778 4.72967 10.9092C4.7235 10.8406 4.73075 10.7714 4.75101 10.7056C4.79192 10.5727 4.88333 10.4617 5.00512 10.397C5.06543 10.365 5.13138 10.3453 5.19921 10.3391C5.26704 10.3328 5.33543 10.3402 5.40045 10.3607C5.53527 10.4026 8.70342 11.4308 10.1968 14.7331C10.2333 14.8141 10.2489 14.9031 10.242 14.9918C10.2352 15.0805 10.2062 15.166 10.1577 15.2402C10.1092 15.3144 10.0428 15.375 9.96487 15.4161C9.88689 15.4573 9.79985 15.4777 9.71194 15.4754Z" fill="#F0BF5F"/>
<path d="M9.83123 15.4965C9.74298 15.4964 9.6562 15.4736 9.57911 15.4301C9.50201 15.3867 9.43716 15.324 9.39069 15.2481C9.34422 15.1722 9.31767 15.0855 9.31355 14.9964C9.30943 14.9072 9.32789 14.8184 9.36716 14.7384C9.69026 14.0514 10.147 13.4374 10.7101 12.9331C11.2731 12.4288 11.931 12.0445 12.6442 11.8034C12.7726 11.7805 12.9049 11.8074 13.0145 11.8788C13.1242 11.9502 13.2033 12.0607 13.236 12.1884C13.2687 12.3162 13.2527 12.4517 13.191 12.5679C13.1294 12.6842 13.0267 12.7727 12.9035 12.8158C12.333 13.0199 11.8085 13.337 11.3607 13.7487C10.9128 14.1603 10.5506 14.6582 10.2953 15.2132C10.2513 15.2991 10.1847 15.3711 10.1028 15.4211C10.0209 15.4711 9.92689 15.4971 9.83123 15.4965Z" fill="#F0BF5F"/>
<path d="M19.2992 6.75407C19.2224 6.75324 19.1467 6.73516 19.0777 6.70114C19.0087 6.66712 18.9479 6.61801 18.8999 6.55735C16.717 3.90555 11.3348 5.57112 11.2803 5.58948C11.149 5.63122 11.0066 5.61847 10.8846 5.55403C10.7626 5.48959 10.6708 5.37874 10.6296 5.24588C10.5883 5.11301 10.6009 4.969 10.6646 4.84553C10.7283 4.72206 10.8379 4.62925 10.9692 4.58751C11.2285 4.50883 17.0696 2.69637 19.6959 5.88588C19.759 5.96253 19.7992 6.05581 19.8117 6.15477C19.8243 6.25372 19.8087 6.35425 19.7668 6.44456C19.7249 6.53487 19.6584 6.61122 19.5751 6.66465C19.4918 6.71807 19.3952 6.74636 19.2966 6.7462L19.2992 6.75407Z" fill="#F0BF5F"/>
<path d="M19.377 6.72252C19.2619 6.72273 19.15 6.68418 19.0589 6.61294C18.9679 6.54171 18.9028 6.44184 18.8741 6.32908C17.9978 2.88515 14.6818 1.00449 14.6481 0.983508C14.5857 0.951874 14.5302 0.907811 14.485 0.853959C14.4399 0.800108 14.4059 0.737578 14.3852 0.670121C14.3645 0.602663 14.3574 0.531666 14.3645 0.461389C14.3715 0.391113 14.3926 0.323003 14.4263 0.261145C14.46 0.199287 14.5057 0.144955 14.5607 0.101408C14.6157 0.0578609 14.6788 0.0259955 14.7462 0.00772287C14.8137 -0.0105497 14.8841 -0.0148531 14.9532 -0.00492918C15.0223 0.00499475 15.0887 0.0289415 15.1485 0.0654751C15.2963 0.149409 18.8922 2.1822 19.88 6.06679C19.8971 6.13361 19.9011 6.20321 19.8916 6.27157C19.8821 6.33994 19.8593 6.40574 19.8246 6.4652C19.79 6.52466 19.744 6.5766 19.6895 6.61806C19.6349 6.65952 19.5728 6.68967 19.5067 6.70679C19.4643 6.71754 19.4207 6.72282 19.377 6.72252Z" fill="#F0BF5F"/>
<path d="M23.852 12.5901C23.7273 12.5916 23.6063 12.5477 23.511 12.4662C23.4158 12.3848 23.3528 12.2714 23.3334 12.1468C23.3334 12.1022 22.5972 7.70093 19.2346 6.79863C19.1061 6.75972 18.9975 6.67196 18.9316 6.55378C18.8657 6.4356 18.8477 6.2962 18.8812 6.16483C18.9148 6.03347 18.9973 5.92037 19.1116 5.84927C19.2258 5.77818 19.3628 5.75462 19.4938 5.78355C21.1868 6.24256 22.5557 7.46486 23.4838 9.32716C23.9017 10.1689 24.2002 11.066 24.3705 11.9921C24.3808 12.0603 24.3777 12.1299 24.3614 12.1969C24.345 12.2639 24.3158 12.327 24.2754 12.3825C24.2349 12.4381 24.184 12.485 24.1256 12.5206C24.0672 12.5562 24.0024 12.5799 23.9349 12.5901H23.852Z" fill="#F0BF5F"/>
<path d="M19.377 6.81969C19.2805 6.81957 19.1859 6.7922 19.104 6.74065C19.022 6.68911 18.9558 6.61544 18.913 6.52794C18.8702 6.44044 18.8523 6.34258 18.8615 6.24537C18.8706 6.14816 18.9064 6.05547 18.9648 5.97772C20.5048 3.93444 24.1111 5.26952 24.2718 5.32723C24.4008 5.37592 24.5053 5.47444 24.5624 5.6011C24.6195 5.72777 24.6246 5.8722 24.5765 6.00264C24.5283 6.13307 24.4309 6.23882 24.3058 6.29662C24.1806 6.35442 24.0378 6.35953 23.9089 6.31084C23.0741 5.99346 20.6811 5.43215 19.7892 6.61772C19.7404 6.68107 19.6778 6.73223 19.6064 6.76725C19.5349 6.80227 19.4564 6.82021 19.377 6.81969Z" fill="#F0BF5F"/>
<path d="M19.377 11.3941C19.3333 11.3944 19.2897 11.3891 19.2474 11.3783C19.1813 11.3612 19.1191 11.3311 19.0646 11.2896C19.01 11.2482 18.9641 11.1962 18.9294 11.1368C18.8947 11.0773 18.8719 11.0115 18.8624 10.9431C18.8529 10.8748 18.8569 10.8052 18.874 10.7383C19.0763 9.95146 19.4807 7.6354 18.9155 6.54163C18.8796 6.48033 18.8564 6.41228 18.8473 6.34161C18.8383 6.27095 18.8435 6.19916 18.8628 6.13062C18.8821 6.06208 18.9149 5.99823 18.9594 5.94296C19.0038 5.8877 19.059 5.84218 19.1214 5.80917C19.1838 5.77617 19.2522 5.75638 19.3224 5.751C19.3927 5.74563 19.4633 5.75479 19.5299 5.77792C19.5965 5.80106 19.6577 5.83768 19.7099 5.88555C19.7621 5.93343 19.8041 5.99155 19.8333 6.05638C20.6837 7.70359 19.9603 10.6675 19.8748 11.0006C19.8462 11.1125 19.7819 11.2118 19.6919 11.2829C19.6019 11.354 19.4912 11.3931 19.377 11.3941Z" fill="#F0BF5F"/>
<path d="M21.4977 22.4628C21.0181 22.4665 20.5481 22.3259 20.1475 22.0589C19.7469 21.7919 19.4337 21.4106 19.2477 20.9633C19.0616 20.516 19.0111 20.0228 19.1024 19.5464C19.1938 19.07 19.423 18.6318 19.7609 18.2873C20.0988 17.9428 20.5303 17.7077 21.0005 17.6117C21.4707 17.5156 21.9585 17.5631 22.402 17.7479C22.8455 17.9328 23.2248 18.2468 23.4917 18.6501C23.7586 19.0533 23.9011 19.5277 23.9011 20.013C23.9025 20.66 23.6503 21.2811 23.1998 21.7404C22.7493 22.1996 22.1372 22.4594 21.4977 22.4628ZM21.4977 18.6123C21.2232 18.6087 20.9537 18.6877 20.7237 18.8394C20.4937 18.9911 20.3134 19.2086 20.2058 19.4641C20.0982 19.7197 20.0682 20.0019 20.1196 20.2748C20.1709 20.5477 20.3013 20.799 20.4942 20.9967C20.6871 21.1945 20.9337 21.3297 21.2028 21.3852C21.4718 21.4408 21.7511 21.4142 22.0051 21.3087C22.2591 21.2033 22.4764 21.0238 22.6294 20.793C22.7823 20.5623 22.864 20.2908 22.864 20.013C22.8634 19.6459 22.7194 19.2939 22.4636 19.0335C22.2077 18.7732 21.8606 18.6256 21.4977 18.6228V18.6123Z" fill="#F0BF5F"/>
</g>
<defs>
<clipPath id="clip0_12_329">
<rect width="28" height="32" fill="white"/>
</clipPath>
</defs>
</svg>
