<svg width="32" height="32" viewBox="0 0 32 32" fill="none" xmlns="http://www.w3.org/2000/svg">
<path d="M14.7201 21.5039L17.0881 18.6879L14.9121 16.8959L5.12009 28.6079M20.1601 4.41594C16.5761 4.73594 13.9521 7.87194 14.2721 11.4559C14.2721 11.5839 14.3361 11.7119 14.3361 11.8399L20.8641 17.3439C20.9921 17.3439 21.1201 17.3439 21.3121 17.2799C24.8321 16.9599 27.4561 13.8879 27.1361 10.3039C26.8161 6.71994 23.6801 4.09594 20.1601 4.41594ZM13.4401 15.6159L14.2721 16.3199L4.16009 28.4799L3.84009 27.0719L13.4401 15.6159Z" stroke="#F0BF5F"/>
<path fill-rule="evenodd" clip-rule="evenodd" d="M12.9633 13.4078C13.1743 13.7631 12.9633 14.2604 12.6819 14.6157L1.77783 27.7597L2.48132 30.8148L6.35049 30.0333L6.77258 29.5359L6.63189 27.7597L7.47607 27.6887L8.67199 26.2677L9.51618 26.1966L10.3604 25.273L10.2197 24.3494L10.8528 23.6389L10.5714 22.9994L10.9935 22.5021L12.2598 22.9284L12.6819 22.36L15.4255 22.9994L18.3801 19.447C18.6615 19.0918 19.1539 18.8076 19.5057 18.8786L20.6313 19.8733C20.8423 19.8733 20.983 19.8022 21.194 19.8022C25.9074 19.3759 29.4248 15.1841 29.0027 10.3527C28.5806 5.52143 24.4301 2.04004 19.6464 2.39528C14.933 2.82158 11.4156 7.0845 11.8377 11.9158C11.8377 12.0579 11.8377 12.2711 11.908 12.4132L12.9633 13.4078ZM23.6562 7.15555C24.5708 7.93709 24.7115 9.35807 23.9376 10.2817C23.7969 10.4238 23.6562 10.5659 23.5155 10.708L20.3499 8.00814C20.4202 7.79499 20.4906 7.6529 20.6313 7.43975C21.4051 6.51611 22.7417 6.37402 23.6562 7.15555Z" stroke="#333333" stroke-width="2" stroke-linejoin="round"/>
</svg>
