<svg width="32" height="32" viewBox="0 0 32 32" fill="none" xmlns="http://www.w3.org/2000/svg">
<g clip-path="url(#clip0_12_318)">
<path d="M7.5625 14.4375H24.4375C24.7826 14.4375 25.0625 14.1577 25.0625 13.8125C25.0625 13.4674 24.7826 13.1875 24.4375 13.1875H7.5625C7.21738 13.1875 6.9375 13.4674 6.9375 13.8125C6.9375 14.1576 7.21738 14.4375 7.5625 14.4375Z" fill="#F0BF5F"/>
<path d="M24.4375 18.1875H7.5625C7.21738 18.1875 6.9375 18.4673 6.9375 18.8125C6.9375 19.1576 7.21738 19.4375 7.5625 19.4375H24.4375C24.7826 19.4375 25.0625 19.1576 25.0625 18.8125C25.0625 18.4673 24.7826 18.1875 24.4375 18.1875Z" fill="#F0BF5F"/>
<path d="M24.4375 23.1875H7.5625C7.21738 23.1875 6.9375 23.4673 6.9375 23.8125C6.9375 24.1576 7.21738 24.4375 7.5625 24.4375H24.4375C24.7826 24.4375 25.0625 24.1576 25.0625 23.8125C25.0625 23.4673 24.7826 23.1875 24.4375 23.1875Z" fill="#F0BF5F"/>
<path d="M24.4375 28.1875H7.5625C7.21738 28.1875 6.9375 28.4673 6.9375 28.8125C6.9375 29.1576 7.21738 29.4375 7.5625 29.4375H24.4375C24.7826 29.4375 25.0625 29.1576 25.0625 28.8125C25.0625 28.4673 24.7826 28.1875 24.4375 28.1875Z" fill="#F0BF5F"/>
<path d="M16 8.8125C17.3785 8.8125 18.5 7.691 18.5 6.3125C18.5 4.934 17.3785 3.8125 16 3.8125C14.6215 3.8125 13.5 4.934 13.5 6.3125C13.5 7.691 14.6215 8.8125 16 8.8125ZM16 5.0625C16.6892 5.0625 17.25 5.62325 17.25 6.3125C17.25 7.00175 16.6892 7.5625 16 7.5625C15.3108 7.5625 14.75 7.00175 14.75 6.3125C14.75 5.62325 15.3108 5.0625 16 5.0625Z" fill="#F0BF5F"/>
<path d="M31.5874 7.6262L16.2749 0.126203C16.1014 0.0412656 15.8986 0.0412656 15.7251 0.126203L0.412562 7.6262C0.198312 7.73114 0.0625 7.94895 0.0625 8.18752V11.3125C0.0625 11.6577 0.342313 11.9375 0.6875 11.9375H3.8125V30.6875H2.5625C2.21738 30.6875 1.9375 30.9673 1.9375 31.3125C1.9375 31.6576 2.21738 31.9375 2.5625 31.9375C2.81569 31.9375 29.1493 31.9375 29.4375 31.9375C29.7826 31.9375 30.0625 31.6576 30.0625 31.3125C30.0625 30.9673 29.7826 30.6875 29.4375 30.6875H28.1875V11.9375H31.3125C31.6576 11.9375 31.9375 11.6577 31.9375 11.3125V8.18752C31.9375 7.94895 31.8017 7.73114 31.5874 7.6262ZM23.8125 20.6875H8.1875V16.9375H23.8125V20.6875ZM8.1875 21.9375H23.8125V25.6875H8.1875V21.9375ZM23.8125 15.6875H8.1875V11.9375H23.8125V15.6875ZM8.1875 30.6875V26.9375H23.8125V30.6875H8.1875ZM30.6875 10.6875H27.5625C27.2174 10.6875 26.9375 10.9674 26.9375 11.3125V30.6875H25.0625V11.3125C25.0625 10.9674 24.7826 10.6875 24.4375 10.6875H7.5625C7.21738 10.6875 6.9375 10.9674 6.9375 11.3125V30.6875H5.0625V11.3125C5.0625 10.9674 4.78262 10.6875 4.4375 10.6875H1.3125V8.57733L16 1.38345L30.6875 8.57739V10.6875Z" fill="#333333"/>
</g>
<defs>
<clipPath id="clip0_12_318">
<rect width="32" height="32" fill="white"/>
</clipPath>
</defs>
</svg>
