<svg width="32" height="32" viewBox="0 0 32 32" fill="none" xmlns="http://www.w3.org/2000/svg">
<circle cx="16" cy="16" r="16" fill="#D9D9D9"/>
<path d="M9.33494 19.2378C11.117 19.3768 12.7228 18.9875 14.1843 18.0364C12.6554 17.9196 11.633 17.2578 11.0625 16.0175C11.5625 16.0704 12.0304 16.0843 12.5272 15.9675C10.8798 15.5225 10.0016 14.5882 9.88301 13.0809C10.3766 13.2811 10.8413 13.4257 11.3894 13.4313C10.4119 12.7945 9.91186 11.9686 9.93109 10.9285C9.94071 10.4502 10.0881 9.9997 10.3798 9.57423C12.1907 11.4124 14.4631 12.4302 17.2612 12.5998C17.2452 12.4941 17.2356 12.4107 17.2228 12.3245C16.992 10.7839 18.1458 9.38235 19.9087 9.09035C21.0144 8.90682 21.992 9.15988 22.8189 9.82173C22.9471 9.92184 23.0561 9.94408 23.2163 9.90793C23.8606 9.76611 24.4728 9.56032 25.0657 9.28224C24.8381 9.93296 24.3702 10.4224 23.7356 10.834C23.8798 10.8117 24.0272 10.795 24.1715 10.77C24.3221 10.7422 24.4728 10.7116 24.6234 10.6755C24.7676 10.6421 24.9087 10.6032 25.0497 10.5614C25.1939 10.5197 25.3381 10.4725 25.508 10.4474C25.4247 10.5475 25.3446 10.6532 25.2548 10.7505C24.883 11.1593 24.4535 11.5181 23.9824 11.8379C23.9343 11.8712 23.8926 11.9435 23.8958 11.9936C23.9215 12.9808 23.7612 13.943 23.3926 14.8774C22.6683 16.7183 21.4054 18.2089 19.5112 19.2739C18.5753 19.7995 17.5529 20.1443 16.4599 20.3446C15.3766 20.542 14.2869 20.5782 13.1939 20.4669C12.0978 20.3557 11.0561 20.0748 10.0753 19.6354C9.81571 19.5214 9.56571 19.3935 9.3125 19.2711C9.32212 19.26 9.32853 19.2489 9.33494 19.2378Z" fill="#333333"/>
</svg>
