<svg width="44" height="44" viewBox="0 0 44 44" fill="none" xmlns="http://www.w3.org/2000/svg">
<path d="M22 23.9319L12.6995 33.2329C12.4456 33.4865 12.1265 33.6163 11.7421 33.6224C11.358 33.6282 11.033 33.4984 10.7672 33.2329C10.5017 32.967 10.3689 32.645 10.3689 32.2667C10.3689 31.8884 10.5017 31.5664 10.7672 31.3005L20.0681 22L10.7672 12.6995C10.5136 12.4456 10.3837 12.1265 10.3776 11.7421C10.3718 11.358 10.5017 11.033 10.7672 10.7672C11.033 10.5017 11.3551 10.3689 11.7334 10.3689C12.1116 10.3689 12.4337 10.5017 12.6995 10.7672L22 20.0681L31.3005 10.7672C31.5544 10.5136 31.8736 10.3837 32.258 10.3776C32.6421 10.3718 32.967 10.5017 33.2329 10.7672C33.4984 11.033 33.6311 11.3551 33.6311 11.7334C33.6311 12.1116 33.4984 12.4337 33.2329 12.6995L23.9319 22L33.2329 31.3005C33.4865 31.5544 33.6163 31.8736 33.6224 32.258C33.6282 32.6421 33.4984 32.967 33.2329 33.2329C32.967 33.4984 32.645 33.6311 32.2667 33.6311C31.8884 33.6311 31.5664 33.4984 31.3005 33.2329L22 23.9319Z" fill="white"/>
</svg>
