<svg width="16" height="16" viewBox="0 0 16 16" fill="none" xmlns="http://www.w3.org/2000/svg">
<path d="M8.00013 12.6885L4.10988 15.0345C3.96488 15.1192 3.81963 15.1547 3.67413 15.1412C3.52863 15.1277 3.39696 15.0787 3.27913 14.9942C3.16113 14.9096 3.07005 14.799 3.00588 14.6625C2.94188 14.526 2.93163 14.375 2.97513 14.2095L4.00788 9.79224L0.573381 6.81924C0.445047 6.70774 0.363297 6.57857 0.328131 6.43174C0.292797 6.2849 0.302047 6.14224 0.355881 6.00374C0.409714 5.86541 0.487297 5.75232 0.588631 5.66449C0.689964 5.57665 0.828464 5.51924 1.00413 5.49224L5.53663 5.09624L7.29638 0.924988C7.36038 0.769821 7.45746 0.655071 7.58763 0.580737C7.7178 0.506404 7.8553 0.469238 8.00013 0.469238C8.14496 0.469238 8.28246 0.506404 8.41263 0.580737C8.5428 0.655071 8.63988 0.769821 8.70388 0.924988L10.4636 5.09624L14.9961 5.49224C15.1718 5.51924 15.3103 5.57665 15.4116 5.66449C15.513 5.75232 15.5905 5.86541 15.6444 6.00374C15.6982 6.14224 15.7075 6.2849 15.6721 6.43174C15.637 6.57857 15.5552 6.70774 15.4269 6.81924L11.9924 9.79224L13.0251 14.2095C13.0686 14.375 13.0584 14.526 12.9944 14.6625C12.9302 14.799 12.8391 14.9096 12.7211 14.9942C12.6033 15.0787 12.4716 15.1277 12.3261 15.1412C12.1806 15.1547 12.0354 15.1192 11.8904 15.0345L8.00013 12.6885Z" fill="#D0D0D0"/>
</svg>
